#!OML:ASF X:\für Bonn\!DataBase\2005_08_10_Bjorn_Final\c3d\bjorn.ASF
:FULLY-SPECIFIED
:DEGREES
31
root 2.33706 19.0658 2.01199 -175.149 -15.3956 174.502
lowerback 7.78023 0.0788606 4.38049
upperback 11.3472 -1.07522 -3.69072
thorax 7.5607 -0.61365 -6.46054
lowerneck -12.4097 -3.66043 -5.25141
upperneck 6.48754 -4.54829 5.28573
head 4.19661 -2.08625 2.14366
rclavicle -2.99668e-014 3.27498e-014
rhumerus -29.0262 -12.9316 -84.2892
rradius 36.5614
rwrist 4.3516
rhand -11.0034 18.3388
rfingers 7.12502
rthumb 15.0172 -11.0966
lclavicle -2.99668e-014 3.27498e-014
lhumerus -30.6913 -33.1227 87.0647
lradius 50.9546
lwrist -7.46
lhand -36.3838 -16.0989
lfingers 7.12502
lthumb -9.48014 13.6679
rfemur -22.4162 -4.55315 13.1138
rtibia 38.5902
rfoot -16.5025 10.0529
rtoes -12.7554
lfemur -26.1185 -0.915816 -19.8532
ltibia 111.849
lfoot -10.9332 -8.46128
ltoes -13.3299
32
root 2.33907 19.0977 1.97571 -175.687 -14.9369 174.645
lowerback 7.74237 0.136856 4.42416
upperback 11.281 -0.988648 -3.54252
thorax 7.52067 -0.57158 -6.32378
lowerneck -12.5304 -3.51476 -5.09754
upperneck 7.06981 -4.34749 4.88651
head 4.37154 -1.9995 2.00707
rclavicle -3.87879e-014 -1.69215e-014
rhumerus -28.8698 -12.9169 -83.807
rradius 36.5849
rwrist 4.51047
rhand -11.4574 18.5251
rfingers 7.12502
rthumb 14.5798 -10.9424
lclavicle -3.87879e-014 -1.69215e-014
lhumerus -31.3235 -33.5656 87.297
lradius 50.6478
lwrist -7.2291
lhand -37.0171 -16.3834
lfingers 7.12502
lthumb -10.0912 13.3546
rfemur -21.3723 -4.50202 13.242
rtibia 37.7816
rfoot -16.1306 10.5936
rtoes -12.0089
lfemur -26.9822 0.0413264 -19.3155
ltibia 115.984
lfoot -9.80632 -10.6244
ltoes -10.8194
33
root 2.34075 19.1291 1.93883 -176.277 -14.4568 174.744
lowerback 7.73113 0.227986 4.43399
upperback 11.2463 -0.865861 -3.41924
thorax 7.50568 -0.515026 -6.19675
lowerneck -12.62 -3.36616 -4.87378
upperneck 7.68026 -4.15446 4.47375
head 4.55055 -1.91791 1.85488
rclavicle 3.94681e-014 -1.64122e-014
rhumerus -28.6633 -12.8856 -83.3404
rradius 36.5913
rwrist 4.67854
rhand -11.9164 18.6614
rfingers 7.12502
rthumb 14.1376 -10.8376
lclavicle 3.94681e-014 -1.64122e-014
lhumerus -31.8848 -34.0073 87.4966
lradius 50.3836
lwrist -6.80309
lhand -37.5501 -16.6828
lfingers 7.12502
lthumb -10.6053 13.0296
rfemur -20.2513 -4.46722 13.311
rtibia 36.9627
rfoot -15.7211 11.2071
rtoes -11.1335
lfemur -27.9909 1.2134 -18.6643
ltibia 120.064
lfoot -9.11349 -12.8413
ltoes -10.9216
34
root 2.34321 19.1576 1.90252 -176.969 -13.9714 174.842
lowerback 7.77784 0.354279 4.45374
upperback 11.2807 -0.71143 -3.30449
thorax 7.54035 -0.445351 -6.08769
lowerneck -12.6666 -3.23911 -4.63029
upperneck 8.21199 -3.99504 4.08146
head 4.70161 -1.85376 1.70407
rclavicle 2.11457e-014 2.78299e-015
rhumerus -28.336 -12.8541 -82.8947
rradius 36.5615
rwrist 4.77817
rhand -12.3236 18.7678
rfingers 7.12502
rthumb 13.7452 -10.7582
lclavicle 2.11457e-014 2.78299e-015
lhumerus -32.3358 -34.5325 87.641
lradius 50.1306
lwrist -6.39728
lhand -38.0908 -16.955
lfingers 7.12502
lthumb -11.1269 12.73
rfemur -19.0263 -4.46616 13.3717
rtibia 36.1644
rfoot -15.3175 11.8446
rtoes -10.2273
lfemur -29.0277 2.68272 -17.7297
ltibia 124.033
lfoot -9.07262 -15.1638
ltoes -13.1435
35
root 2.34624 19.1796 1.86888 -177.718 -13.4861 174.911
lowerback 7.83767 0.515935 4.49366
upperback 11.3971 -0.526961 -3.23977
thorax 7.66537 -0.359856 -6.04874
lowerneck -12.6093 -3.13055 -4.27376
upperneck 8.51566 -3.87799 3.69265
head 4.76601 -1.80937 1.53484
rclavicle 1.43622e-014 -1.51076e-014
rhumerus -27.8129 -12.8691 -82.5251
rradius 36.4407
rwrist 4.832
rhand -12.6948 18.8782
rfingers 7.12502
rthumb 13.3874 -10.6717
lclavicle 1.43622e-014 -1.51076e-014
lhumerus -32.6009 -35.2333 87.6363
lradius 49.884
lwrist -5.90978
lhand -38.5961 -17.1664
lfingers 7.12502
lthumb -11.6142 12.4917
rfemur -17.7634 -4.5152 13.3932
rtibia 35.4099
rfoot -14.9107 12.5239
rtoes -9.36271
lfemur -30.0912 4.50378 -16.4551
ltibia 127.836
lfoot -9.3746 -17.635
ltoes -15.3763
36
root 2.3494 19.1968 1.83684 -178.525 -13.0055 174.982
lowerback 7.93866 0.689541 4.52791
upperback 11.5438 -0.334606 -3.1738
thorax 7.80264 -0.273666 -6.00593
lowerneck -12.4454 -3.00289 -3.86511
upperneck 8.72372 -3.74099 3.26886
head 4.78187 -1.75726 1.34957
rclavicle 7.70291e-016 4.96962e-016
rhumerus -27.1805 -12.8742 -82.1713
rradius 36.2659
rwrist 4.82018
rhand -12.9615 18.8845
rfingers 7.12502
rthumb 13.1303 -10.6821
lclavicle 7.70291e-016 4.96962e-016
lhumerus -32.8531 -36.0463 87.5978
lradius 49.715
lwrist -5.28648
lhand -39.0848 -17.4045
lfingers 7.12502
lthumb -12.0854 12.2264
rfemur -16.4716 -4.62567 13.4077
rtibia 34.7002
rfoot -14.5102 13.2449
rtoes -8.47695
lfemur -31.0722 6.85348 -14.616
ltibia 131.43
lfoot -9.63811 -20.3442
ltoes -16.7594
37
root 2.35357 19.2098 1.80682 -179.445 -12.52 175.041
lowerback 8.19341 0.863783 4.51295
upperback 11.6928 -0.146628 -3.0969
thorax 7.85316 -0.200951 -5.92136
lowerneck -12.2182 -2.86529 -3.47315
upperneck 8.94448 -3.58965 2.84854
head 4.79232 -1.69921 1.16976
rclavicle -5.17834e-014 -4.44284e-014
rhumerus -26.5234 -12.7672 -81.8079
rradius 36.0873
rwrist 4.74351
rhand -13.093 18.7807
rfingers 7.12502
rthumb 13.0036 -10.7941
lclavicle -5.17834e-014 -4.44284e-014
lhumerus -33.1181 -36.9386 87.5753
lradius 49.5346
lwrist -4.53936
lhand -39.5743 -17.7585
lfingers 7.12502
lthumb -12.5574 11.8441
rfemur -15.0724 -4.72126 13.4031
rtibia 34.0234
rfoot -14.1479 13.8976
rtoes -7.90885
lfemur -31.7913 9.93559 -11.9673
ltibia 134.749
lfoot -9.69181 -23.3773
ltoes -17.3553
38
root 2.35785 19.2223 1.77629 -180.475 -12.0164 175.077
lowerback 8.57022 1.03971 4.41713
upperback 11.8588 0.0324388 -2.98892
thorax 7.84884 -0.147296 -5.75733
lowerneck -11.9258 -2.70498 -3.10327
upperneck 9.16123 -3.40119 2.39765
head 4.7908 -1.62643 0.987501
rclavicle 2.09221e-014 -1.39149e-015
rhumerus -25.8132 -12.6081 -81.4167
rradius 35.8464
rwrist 4.77981
rhand -13.1727 18.6436
rfingers 7.12502
rthumb 12.9267 -10.936
lclavicle 2.09221e-014 -1.39149e-015
lhumerus -33.3451 -37.7812 87.5722
lradius 49.3413
lwrist -3.85933
lhand -40.0783 -18.1495
lfingers 7.12502
lthumb -13.0433 11.4227
rfemur -13.56 -4.83332 13.3612
rtibia 33.3699
rfoot -13.8398 14.5299
rtoes -7.70244
lfemur -32.1944 14.0002 -8.28074
ltibia 137.762
lfoot -9.7517 -26.7006
ltoes -16.845
39
root 2.36205 19.2312 1.7464 -181.618 -11.5323 175.115
lowerback 9.04656 1.21227 4.34529
upperback 12.0707 0.192857 -2.90072
thorax 7.83928 -0.106757 -5.63096
lowerneck -11.6472 -2.53148 -2.68262
upperneck 9.39675 -3.20262 1.95373
head 4.79794 -1.54642 0.799395
rclavicle 6.16232e-015 6.4605e-015
rhumerus -25.002 -12.4145 -81.1035
rradius 35.5588
rwrist 4.80256
rhand -13.2344 18.4686
rfingers 7.12502
rthumb 12.8672 -11.1148
lclavicle 6.16232e-015 6.4605e-015
lhumerus -33.448 -38.666 87.425
lradius 49.178
lwrist -3.53955
lhand -40.6287 -18.1663
lfingers 7.12502
lthumb -13.5738 11.3712
rfemur -11.9366 -4.99437 13.3004
rtibia 32.7385
rfoot -13.5356 15.1914
rtoes -7.42854
lfemur -32.101 19.1706 -3.2871
ltibia 140.443
lfoot -10.0973 -30.3347
ltoes -14.171
40
root 2.36685 19.2337 1.7179 -182.865 -11.035 175.132
lowerback 9.62802 1.40364 4.28261
upperback 12.3285 0.362309 -2.84618
thorax 7.82648 -0.0669056 -5.55001
lowerneck -11.3405 -2.36162 -2.21211
upperneck 9.59908 -3.01889 1.54269
head 4.79184 -1.4698 0.612409
rclavicle -2.88238e-015 2.49475e-014
rhumerus -24.1196 -12.2776 -80.8553
rradius 35.2646
rwrist 4.86875
rhand -13.3024 18.2934
rfingers 7.12502
rthumb 12.8016 -11.2941
lclavicle -2.88238e-015 2.49475e-014
lhumerus -33.4493 -39.7172 87.1723
lradius 48.9943
lwrist -3.05819
lhand -41.2276 -18.3983
lfingers 7.12502
lthumb -14.1509 11.0998
rfemur -10.228 -5.2108 13.1893
rtibia 32.1682
rfoot -13.2491 15.9157
rtoes -7.2364
lfemur -33.1 20.9752 -1.69888
ltibia 142.807
lfoot -10.4676 -31.6376
ltoes -12.1102
41
root 2.37032 19.2315 1.68937 -184.202 -10.5075 175.123
lowerback 10.2945 1.6058 4.19517
upperback 12.6234 0.527871 -2.78524
thorax 7.80824 -0.0387031 -5.45178
lowerneck -11.0553 -2.18799 -1.76941
upperneck 9.80975 -2.82649 1.16218
head 4.79413 -1.38765 0.43932
rclavicle 9.54166e-015 3.77691e-015
rhumerus -23.1701 -12.002 -80.6157
rradius 34.9695
rwrist 4.86799
rhand -13.3607 18.0631
rfingers 7.12502
rthumb 12.7454 -11.5279
lclavicle 9.54166e-015 3.77691e-015
lhumerus -33.3798 -40.8252 86.8802
lradius 48.8146
lwrist -2.48995
lhand -41.947 -18.7598
lfingers 7.12502
lthumb -14.8441 10.6885
rfemur -8.46291 -5.41066 13.0266
rtibia 31.6676
rfoot -13.0215 16.639
rtoes -7.23144
lfemur -34.3396 22.9817 -0.288775
ltibia 144.855
lfoot -12.0651 -32.363
ltoes -13.7552
42
root 2.372 19.218 1.66231 -185.62 -9.95462 175.1
lowerback 11.0324 1.81906 4.12742
upperback 12.9508 0.692188 -2.7298
thorax 7.79097 -0.0161773 -5.37486
lowerneck -10.7227 -2.02214 -1.33334
upperneck 9.97847 -2.64567 0.817179
head 4.77777 -1.3091 0.277735
rclavicle -2.90226e-014 4.57205e-015
rhumerus -22.1846 -11.7136 -80.3846
rradius 34.7123
rwrist 4.8374
rhand -13.3734 17.8572
rfingers 7.12502
rthumb 12.7332 -11.7345
lclavicle -2.90226e-014 4.57205e-015
lhumerus -33.2262 -41.972 86.5331
lradius 48.625
lwrist -1.87875
lhand -42.7032 -19.2081
lfingers 7.12502
lthumb -15.5726 10.185
rfemur -6.68411 -5.57836 12.813
rtibia 31.2957
rfoot -12.8388 17.4083
rtoes -7.14359
lfemur -35.9103 25.2901 0.866832
ltibia 146.586
lfoot -14.9117 -32.3697
ltoes -18.6537
